<svg width="100" height="26" viewBox="0 0 100 26" fill="none" xmlns="http://www.w3.org/2000/svg">
<g clip-path="url(#clip0_1_265)">
<path fill-rule="evenodd" clip-rule="evenodd" d="M3.45011 25.5748H0V0.40753H3.45011V25.5748ZM64.8426 17.4781L67.7428 18.7316L67.5122 19.2321C65.4812 23.5949 61.4501 26 56.1552 26C48.5588 26 43.459 20.7735 43.459 12.9956C43.459 5.34177 48.6785 -0.00439453 56.1552 -0.00439453C61.3171 -0.00439453 65.2993 2.39186 67.3792 6.75915L67.6186 7.25966L64.4834 8.6106L64.3725 8.37584C62.7672 5.00957 59.8137 3.21571 56.1552 3.21571C50.6253 3.21571 46.9091 7.12678 46.9091 12.9912C46.9091 18.8511 50.6208 22.7976 56.1552 22.7976C59.8492 22.7976 62.9268 20.9462 64.3814 17.8413L64.4922 17.6021L64.8426 17.4781ZM100.004 12.9956C100.004 20.7735 94.8248 26 87.1131 26C79.4058 26 74.2262 20.7735 74.2262 12.9956C74.2262 5.22218 79.4058 3.477e-05 87.1131 3.477e-05C94.8248 3.477e-05 100.004 5.22218 100.004 12.9956ZM96.5499 12.9956C96.5499 7.15336 92.7539 3.22014 87.1131 3.22014C81.4767 3.22014 77.6807 7.14893 77.6807 12.9956C77.6807 18.8467 81.4723 22.7755 87.1131 22.7755C92.7583 22.7755 96.5499 18.8423 96.5499 12.9956Z" fill="white"/>
<path fill-rule="evenodd" clip-rule="evenodd" d="M31.0377 2.83019C30.2794 11.2591 33.1929 17.9252 39.6718 22.6247L40.0709 22.8949L39.9423 23.1208L38.439 25.681L38.0355 25.5525C37.0953 25.2602 32.5853 22.4431 29.8359 16.5389C25.7206 17.3672 19.0953 19.604 14.9135 25.5746H11.1175L11.153 25.0077C11.6142 18.2309 16.6962 6.28061 28.8026 1.12491L31.3614 0.110596L31.2372 1.0186C31.1544 1.60622 31.0909 2.21008 31.0465 2.83019M16 19.6704C16 19.6674 16 19.666 16 19.666C15.997 19.666 15.9941 19.6674 15.9911 19.6704H16ZM16.0044 19.666C20.3414 15.9321 25.4412 14.2622 28.7006 13.5358C27.9734 11.0643 27.6319 8.49083 27.6851 5.91298V5.42576L27.3037 5.64279C21.9335 8.76102 17.9068 13.7573 16.0044 19.666Z" fill="white"/>
</g>
<defs>
<clipPath id="clip0_1_265">
<rect width="100" height="26" fill="white"/>
</clipPath>
</defs>
</svg>
